<svg width="100" height="100" viewBox="0 0 100 100" fill="none" xmlns="http://www.w3.org/2000/svg">
<circle cx="50" cy="50" r="49" stroke="black" stroke-width="2"/>
<path d="M73.8636 40H66.8182C66.4015 37.9735 65.6724 36.1932 64.6307 34.6591C63.608 33.125 62.358 31.8371 60.8807 30.7955C59.4223 29.7348 57.803 28.9394 56.0227 28.4091C54.2424 27.8788 52.3864 27.6136 50.4545 27.6136C46.9318 27.6136 43.7405 28.5038 40.8807 30.2841C38.0398 32.0644 35.7765 34.6875 34.0909 38.1534C32.4242 41.6193 31.5909 45.8712 31.5909 50.9091C31.5909 55.947 32.4242 60.1989 34.0909 63.6648C35.7765 67.1307 38.0398 69.7538 40.8807 71.5341C43.7405 73.3144 46.9318 74.2045 50.4545 74.2045C52.3864 74.2045 54.2424 73.9394 56.0227 73.4091C57.803 72.8788 59.4223 72.0928 60.8807 71.0511C62.358 69.9905 63.608 68.6932 64.6307 67.1591C65.6724 65.6061 66.4015 63.8258 66.8182 61.8182H73.8636C73.3333 64.7917 72.3674 67.4527 70.9659 69.8011C69.5644 72.1496 67.822 74.1477 65.7386 75.7955C63.6553 77.4242 61.3163 78.6648 58.7216 79.517C56.1458 80.3693 53.3902 80.7955 50.4545 80.7955C45.4924 80.7955 41.0795 79.5833 37.2159 77.1591C33.3523 74.7348 30.3125 71.2879 28.0966 66.8182C25.8807 62.3485 24.7727 57.0455 24.7727 50.9091C24.7727 44.7727 25.8807 39.4697 28.0966 35C30.3125 30.5303 33.3523 27.0833 37.2159 24.6591C41.0795 22.2348 45.4924 21.0227 50.4545 21.0227C53.3902 21.0227 56.1458 21.4489 58.7216 22.3011C61.3163 23.1534 63.6553 24.4034 65.7386 26.0511C67.822 27.6799 69.5644 29.6686 70.9659 32.017C72.3674 34.3466 73.3333 37.0076 73.8636 40Z" fill="black"/>
</svg>
