<svg width="20" height="20" viewBox="0 0 20 20" fill="none" xmlns="http://www.w3.org/2000/svg">
<circle cx="10" cy="10" r="10" fill="#012169"/>
<mask id="mask0_26_55" style="mask-type:alpha" maskUnits="userSpaceOnUse" x="0" y="0" width="20" height="20">
<circle cx="10" cy="10" r="10" fill="#012169"/>
</mask>
<g mask="url(#mask0_26_55)">
<rect x="16.364" y="0.807617" width="4" height="22" transform="rotate(45 16.364 0.807617)" fill="white"/>
<rect x="17.7781" y="2.22183" width="1" height="22" transform="rotate(45 17.7781 2.22183)" fill="#C8192E"/>
<rect x="19.3848" y="16.5563" width="4" height="22" transform="rotate(135 19.3848 16.5563)" fill="white"/>
<rect x="17.9706" y="17.9706" width="1" height="22" transform="rotate(135 17.9706 17.9706)" fill="#C8192E"/>
<rect x="8" y="-1" width="4" height="22" fill="white"/>
<rect x="21" y="7" width="6" height="22" transform="rotate(90 21 7)" fill="white"/>
<rect x="9" y="-1" width="2" height="22" fill="#C8192E"/>
<rect x="21" y="8" width="4" height="22" transform="rotate(90 21 8)" fill="#C8192E"/>
</g>
</svg>
